<svg width="43" height="42" viewBox="0 0 43 42" fill="none" xmlns="http://www.w3.org/2000/svg">
<path fill-rule="evenodd" clip-rule="evenodd" d="M6.8 4.2C6.24304 4.2 5.7089 4.42125 5.31508 4.81508C4.92125 5.2089 4.7 5.74304 4.7 6.3V35.7C4.7 36.257 4.92125 36.7911 5.31508 37.1849C5.7089 37.5788 6.24305 37.8 6.8 37.8H36.2C36.757 37.8 37.2911 37.5788 37.6849 37.1849C38.0788 36.7911 38.3 36.257 38.3 35.7V6.3C38.3 5.74305 38.0788 5.2089 37.6849 4.81508C37.2911 4.42125 36.757 4.2 36.2 4.2H6.8ZM2.34523 1.84523C3.52671 0.663748 5.12914 0 6.8 0H36.2C37.8709 0 39.4733 0.663748 40.6548 1.84523C41.8363 3.02671 42.5 4.62914 42.5 6.3V35.7C42.5 37.3709 41.8363 38.9733 40.6548 40.1548C39.4733 41.3363 37.8709 42 36.2 42H6.8C5.12914 42 3.52671 41.3363 2.34523 40.1548C1.16375 38.9733 0.5 37.3709 0.5 35.7V6.3C0.5 4.62914 1.16375 3.02671 2.34523 1.84523Z" fill="#253871"/>
<path fill-rule="evenodd" clip-rule="evenodd" d="M12.5 11.4C12.5 10.0745 13.5633 9 14.875 9H24.375C26.2647 9 28.0769 9.75857 29.4131 11.1088C30.7493 12.4591 31.5 14.2904 31.5 16.2C31.5 18.1096 30.7493 19.9409 29.4131 21.2912C28.0769 22.6414 26.2647 23.4 24.375 23.4H17.25V30.6C17.25 31.9255 16.1867 33 14.875 33C13.5633 33 12.5 31.9255 12.5 30.6V11.4ZM17.25 18.6H24.375C25.0049 18.6 25.609 18.3471 26.0544 17.8971C26.4998 17.447 26.75 16.8365 26.75 16.2C26.75 15.5635 26.4998 14.953 26.0544 14.5029C25.609 14.0529 25.0049 13.8 24.375 13.8H17.25V18.6Z" fill="#253871"/>
</svg>
