<svg width="47" height="54" viewBox="0 0 47 54" fill="none" xmlns="http://www.w3.org/2000/svg">
<path fill-rule="evenodd" clip-rule="evenodd" d="M35.3663 0.518196C36.0573 1.20912 36.0573 2.32934 35.3663 3.02027L27.7712 10.6154H37.6538C42.5516 10.6154 46.5 14.5638 46.5 19.4615V37.1538C46.5 42.0516 42.5516 46 37.6538 46H9.34615C4.44842 46 0.5 42.0516 0.5 37.1538V19.4615C0.5 14.5638 4.44842 10.6154 9.34615 10.6154H19.2288L11.6337 3.02027C10.9428 2.32934 10.9428 1.20912 11.6337 0.518196C12.3246 -0.172732 13.4449 -0.172732 14.1358 0.518196L23.5 9.88244L32.8643 0.518196C33.5552 -0.172732 34.6754 -0.172732 35.3663 0.518196ZM4.03846 19.4615C4.03846 16.518 6.40266 14.1538 9.34615 14.1538H37.6538C40.5973 14.1538 42.9615 16.518 42.9615 19.4615V37.1538C42.9615 40.0973 40.5973 42.4615 37.6538 42.4615H9.34615C6.40266 42.4615 4.03846 40.0973 4.03846 37.1538V19.4615ZM16.423 49.5385C15.4459 49.5385 14.6538 50.3306 14.6538 51.3077C14.6538 52.2848 15.4459 53.0769 16.423 53.0769H30.5769C31.554 53.0769 32.3461 52.2848 32.3461 51.3077C32.3461 50.3306 31.554 49.5385 30.5769 49.5385H16.423Z" fill="#253871"/>
</svg>
