<svg width="53" height="38" viewBox="0 0 53 38" fill="none" xmlns="http://www.w3.org/2000/svg">
<path d="M48.0319 13.4457C36.1399 1.69178 16.8601 1.69178 4.96809 13.4457L3.31206 15.0825L0 11.8066L1.65603 10.1698C15.3751 -3.38993 37.6226 -3.38993 51.344 10.1698L53 11.8066L49.6879 15.0825L48.0319 13.4457ZM37.2642 24.0861C34.409 21.2642 30.5366 19.6789 26.4988 19.6789C22.4611 19.6789 18.5887 21.2642 15.7335 24.0861L14.0774 25.7229L10.7654 22.4493L12.4214 20.8125C16.1551 17.1226 21.2189 15.0497 26.4988 15.0497C31.7788 15.0497 36.8425 17.1226 40.5763 20.8125L42.2346 22.4493L38.9202 25.7229L37.2642 24.0861ZM23.1868 31.4528C23.6218 31.0226 24.1383 30.6814 24.7068 30.4486C25.2753 30.2158 25.8846 30.096 26.5 30.096C27.1154 30.096 27.7247 30.2158 28.2932 30.4486C28.8617 30.6814 29.3782 31.0226 29.8132 31.4528L31.4693 33.0896L26.4988 38L21.5331 33.0896L23.1868 31.4528Z" fill="#253871"/>
</svg>
