<svg width="45" height="50" viewBox="0 0 45 50" fill="none" xmlns="http://www.w3.org/2000/svg">
<path fill-rule="evenodd" clip-rule="evenodd" d="M12.5 5C10.5109 5 8.60322 5.79018 7.1967 7.1967C6.39819 7.99521 5.79833 8.95524 5.42893 10H39.5711C39.2017 8.95524 38.6018 7.99521 37.8033 7.1967C36.3968 5.79018 34.4891 5 32.5 5H12.5ZM40 15H25V25H40V15ZM40 30H5V37.5C5 38.163 5.26339 38.7989 5.73223 39.2678C6.20107 39.7366 6.83696 40 7.5 40H37.5C38.163 40 38.7989 39.7366 39.2678 39.2678C39.7366 38.7989 40 38.163 40 37.5V30ZM5 25H20V15H5V25ZM3.66116 3.66116C6.00537 1.31696 9.18479 0 12.5 0H32.5C35.8152 0 38.9946 1.31696 41.3388 3.66116C43.683 6.00537 45 9.18479 45 12.5V37.5C45 39.4891 44.2098 41.3968 42.8033 42.8033C42.0048 43.6018 41.0448 44.2017 40 44.5711V46.25C40 47.2446 39.6049 48.1984 38.9016 48.9017C38.1984 49.6049 37.2446 50 36.25 50C35.2554 50 34.3016 49.6049 33.5984 48.9017C32.8951 48.1984 32.5 47.2446 32.5 46.25V45H12.5V46.25C12.5 47.2446 12.1049 48.1984 11.4017 48.9017C10.6984 49.6049 9.74456 50 8.75 50C7.75544 50 6.80161 49.6049 6.09835 48.9017C5.39509 48.1984 5 47.2446 5 46.25V44.5711C3.95524 44.2017 2.99521 43.6018 2.1967 42.8033C0.790176 41.3968 0 39.4891 0 37.5V12.5C0 9.18479 1.31696 6.00537 3.66116 3.66116ZM10 35C10 33.6193 11.1193 32.5 12.5 32.5H12.5025C13.8832 32.5 15.0025 33.6193 15.0025 35C15.0025 36.3807 13.8832 37.5 12.5025 37.5H12.5C11.1193 37.5 10 36.3807 10 35Z" fill="#253871"/>
</svg>
