<svg width="24" height="20" viewBox="0 0 24 20" fill="none" xmlns="http://www.w3.org/2000/svg">
<path id="Vector" d="M16.263 5.30973C16.067 5.30973 15.8974 5.23968 15.7542 5.09956C15.6109 4.95944 15.5393 4.79351 15.5393 4.60177C15.5393 4.22566 15.6109 3.86431 15.7542 3.5177C15.8974 3.17109 16.1085 2.86504 16.3874 2.59956L17.2807 1.7146C17.5672 1.43437 17.7104 1.09882 17.7104 0.707965C17.7104 0.516224 17.782 0.350295 17.9253 0.210177C18.0685 0.070059 18.2381 0 18.4341 0C18.6301 0 18.7997 0.070059 18.943 0.210177C19.0862 0.350295 19.1578 0.516224 19.1578 0.707965C19.1578 1.08407 19.0862 1.44543 18.943 1.79204C18.7997 2.13864 18.5887 2.44469 18.3097 2.71018L17.4164 3.59513C17.13 3.87537 16.9867 4.21091 16.9867 4.60177C16.9867 4.79351 16.9151 4.95944 16.7719 5.09956C16.6286 5.23968 16.459 5.30973 16.263 5.30973ZM11.9208 5.30973C11.7248 5.30973 11.5552 5.23968 11.412 5.09956C11.2688 4.95944 11.1971 4.79351 11.1971 4.60177C11.1971 4.22566 11.2688 3.86431 11.412 3.5177C11.5552 3.17109 11.7663 2.86504 12.0452 2.59956L12.9385 1.7146C13.225 1.43437 13.3682 1.09882 13.3682 0.707965C13.3682 0.516224 13.4399 0.350295 13.5831 0.210177C13.7263 0.070059 13.8959 0 14.0919 0C14.2879 0 14.4576 0.070059 14.6008 0.210177C14.744 0.350295 14.8156 0.516224 14.8156 0.707965C14.8156 1.08407 14.744 1.44543 14.6008 1.79204C14.4576 2.13864 14.2465 2.44469 13.9676 2.71018L13.0742 3.59513C12.7878 3.87537 12.6445 4.21091 12.6445 4.60177C12.6445 4.79351 12.5729 4.95944 12.4297 5.09956C12.2865 5.23968 12.1168 5.30973 11.9208 5.30973ZM21.3289 7.25664C21.6304 7.25664 21.9131 7.31195 22.177 7.42257C22.4408 7.53319 22.6708 7.68437 22.8668 7.87611C23.0628 8.06785 23.2173 8.29277 23.3304 8.55089C23.4435 8.809 23.5 9.08555 23.5 9.38053V13.6283C23.5 13.9233 23.4435 14.1999 23.3304 14.458C23.2173 14.7161 23.0628 14.941 22.8668 15.1327C22.6708 15.3245 22.4408 15.4757 22.177 15.5863C21.9131 15.6969 21.6304 15.7522 21.3289 15.7522H20.6844C20.6693 15.8038 20.658 15.8518 20.6504 15.896C20.6429 15.9403 20.6278 15.9845 20.6052 16.0288V16.4602C20.6052 16.9469 20.511 17.4041 20.3225 17.8319C20.1341 18.2596 19.874 18.6357 19.5423 18.9602C19.2106 19.2847 18.8261 19.5391 18.3889 19.7235C17.9517 19.9078 17.4843 20 16.9867 20H12.6445C12.0565 20 11.5138 19.8709 11.0162 19.6128C10.5187 19.3547 10.1041 19.0118 9.77237 18.5841H4.11849C3.62094 18.5841 3.15356 18.4919 2.71632 18.3075C2.27909 18.1232 1.89462 17.8724 1.56293 17.5553C1.23124 17.2382 0.971157 16.8621 0.782694 16.427C0.594231 15.9919 0.5 15.531 0.5 15.0442V14.3363H3.39479C3.39479 13.7537 3.50787 13.2043 3.73402 12.6881C3.96018 12.1718 4.27303 11.722 4.67257 11.3385C5.07211 10.955 5.53196 10.649 6.05211 10.4204C6.57227 10.1917 7.13389 10.0811 7.73697 10.0885C7.96313 10.0885 8.18174 10.1069 8.39282 10.1438C8.6039 10.1807 8.81498 10.2323 9.02606 10.2987V5.84071H20.6052V7.25664H21.3289ZM7.73697 11.5044C7.33743 11.5044 6.96427 11.5782 6.6175 11.7257C6.27073 11.8732 5.96165 12.076 5.69027 12.3341C5.41888 12.5922 5.21157 12.8909 5.06834 13.2301C4.92511 13.5693 4.84972 13.9381 4.84218 14.3363H9.02606V11.8142C8.83006 11.7183 8.62652 11.6445 8.41544 11.5929C8.20436 11.5413 7.9782 11.5118 7.73697 11.5044ZM4.11849 17.1681H9.10521C9.05244 16.9543 9.02606 16.7183 9.02606 16.4602V15.7522H2.07178C2.14716 15.9587 2.2527 16.1468 2.3884 16.3164C2.52409 16.486 2.67863 16.6372 2.85202 16.7699C3.0254 16.9027 3.2214 16.9985 3.44002 17.0575C3.65864 17.1165 3.88479 17.1534 4.11849 17.1681ZM9.35398 17.9093V17.9204L9.36529 17.9425V17.9314L9.35398 17.9093ZM19.1578 16.4602V7.25664H10.4735V16.4602C10.4735 16.7552 10.53 17.0317 10.6431 17.2898C10.7561 17.5479 10.9107 17.7729 11.1067 17.9646C11.3027 18.1563 11.5326 18.3075 11.7965 18.4181C12.0603 18.5288 12.343 18.5841 12.6445 18.5841H16.9867C17.2883 18.5841 17.571 18.5288 17.8348 18.4181C18.0987 18.3075 18.3286 18.1563 18.5246 17.9646C18.7206 17.7729 18.8751 17.5479 18.9882 17.2898C19.1013 17.0317 19.1578 16.7552 19.1578 16.4602ZM22.0526 13.6283V9.38053C22.0526 9.18879 21.981 9.02286 21.8378 8.88274C21.6945 8.74263 21.5249 8.67257 21.3289 8.67257H20.6052V14.3363H21.3289C21.5249 14.3363 21.6945 14.2662 21.8378 14.1261C21.981 13.986 22.0526 13.8201 22.0526 13.6283Z" fill="#414141"/>
</svg>
