<svg width="20" height="21" viewBox="0 0 20 21" fill="none" xmlns="http://www.w3.org/2000/svg">
<path id="Vector" d="M11.0286 0.0781347C11.7583 0.0753345 12.488 0.0826686 13.2176 0.100135L13.4116 0.107135C13.6356 0.115135 13.8566 0.125135 14.1236 0.137135C15.1876 0.187135 15.9136 0.355135 16.5506 0.602135C17.2106 0.856135 17.7666 1.20013 18.3226 1.75613C18.831 2.25574 19.2244 2.86008 19.4756 3.52713C19.7226 4.16413 19.8906 4.89113 19.9406 5.95513C19.9526 6.22113 19.9626 6.44313 19.9706 6.66713L19.9766 6.86114C19.9943 7.59033 20.002 8.31973 19.9996 9.04914L20.0006 9.79514V11.1051C20.003 11.8349 19.9954 12.5646 19.9776 13.2941L19.9716 13.4881C19.9636 13.7121 19.9536 13.9331 19.9416 14.2001C19.8916 15.2641 19.7216 15.9901 19.4756 16.6271C19.2252 17.2949 18.8317 17.8997 18.3226 18.3991C17.8225 18.9075 17.2179 19.3009 16.5506 19.5521C15.9136 19.7991 15.1876 19.9671 14.1236 20.0171C13.8566 20.0291 13.6356 20.0391 13.4116 20.0471L13.2176 20.0531C12.4881 20.0709 11.7583 20.0786 11.0286 20.0761L10.2826 20.0771H8.97358C8.24384 20.0796 7.5141 20.0719 6.78458 20.0541L6.59058 20.0481C6.35319 20.0395 6.11585 20.0295 5.87858 20.0181C4.81458 19.9681 4.08858 19.7981 3.45058 19.5521C2.78326 19.3015 2.17881 18.908 1.67958 18.3991C1.17062 17.8994 0.776801 17.2947 0.525577 16.6271C0.278577 15.9901 0.110577 15.2641 0.0605769 14.2001C0.0494399 13.9629 0.0394398 13.7255 0.030577 13.4881L0.0255771 13.2941C0.00714068 12.5646 -0.00119355 11.8349 0.000577001 11.1051V9.04914C-0.00221397 8.31974 0.00512015 7.59033 0.0225771 6.86114L0.029577 6.66713C0.037577 6.44313 0.047577 6.22113 0.059577 5.95513C0.109577 4.89013 0.277577 4.16513 0.524577 3.52713C0.77595 2.85975 1.17054 2.25558 1.68058 1.75713C2.17947 1.24789 2.78354 0.853707 3.45058 0.602135C4.08858 0.355135 4.81358 0.187135 5.87858 0.137135L6.59058 0.107135L6.78458 0.102135C7.51376 0.0837077 8.24316 0.0753734 8.97258 0.0771348L11.0286 0.0781347ZM10.0006 5.07813C9.33808 5.06876 8.68033 5.19116 8.06555 5.4382C7.45077 5.68525 6.89122 6.05201 6.41942 6.51719C5.94762 6.98237 5.57298 7.53667 5.31726 8.1479C5.06155 8.75912 4.92987 9.41508 4.92987 10.0776C4.92987 10.7402 5.06155 11.3961 5.31726 12.0074C5.57298 12.6186 5.94762 13.1729 6.41942 13.6381C6.89122 14.1033 7.45077 14.47 8.06555 14.7171C8.68033 14.9641 9.33808 15.0865 10.0006 15.0771C11.3267 15.0771 12.5984 14.5504 13.5361 13.6127C14.4738 12.675 15.0006 11.4032 15.0006 10.0771C15.0006 8.75105 14.4738 7.47928 13.5361 6.5416C12.5984 5.60392 11.3267 5.07813 10.0006 5.07813ZM10.0006 7.07814C10.3991 7.07079 10.7951 7.14293 11.1654 7.29034C11.5357 7.43775 11.8729 7.65748 12.1574 7.93668C12.4418 8.21588 12.6678 8.54897 12.822 8.91648C12.9763 9.28399 13.0558 9.67855 13.0558 10.0771C13.0559 10.4757 12.9766 10.8703 12.8224 11.2379C12.6683 11.6054 12.4424 11.9386 12.1581 12.2179C11.8737 12.4972 11.5366 12.717 11.1663 12.8645C10.796 13.0121 10.4001 13.0843 10.0016 13.0771C9.20593 13.0771 8.44287 12.7611 7.88026 12.1985C7.31765 11.6358 7.00158 10.8728 7.00158 10.0771C7.00158 9.28149 7.31765 8.51842 7.88026 7.95581C8.44287 7.3932 9.20593 7.07713 10.0016 7.07713L10.0006 7.07814ZM15.2506 3.57813C14.928 3.59105 14.6229 3.72829 14.3992 3.96111C14.1755 4.19393 14.0506 4.50427 14.0506 4.82713C14.0506 5.15 14.1755 5.46034 14.3992 5.69316C14.6229 5.92598 14.928 6.06322 15.2506 6.07613C15.5821 6.07613 15.9 5.94444 16.1345 5.71002C16.3689 5.4756 16.5006 5.15766 16.5006 4.82613C16.5006 4.49461 16.3689 4.17667 16.1345 3.94225C15.9 3.70783 15.5821 3.57613 15.2506 3.57613V3.57813Z" fill="white"/>
</svg>
