<svg width="17" height="18" viewBox="0 0 17 18" fill="none" xmlns="http://www.w3.org/2000/svg">
<path id="Union" fill-rule="evenodd" clip-rule="evenodd" d="M4.72222 0.5C5.24382 0.5 5.66667 0.911414 5.66667 1.41892V1.87838H11.3333V1.41892C11.3333 0.911414 11.7562 0.5 12.2778 0.5C12.7994 0.5 13.2222 0.911414 13.2222 1.41892V1.87838H15.1111C15.6121 1.87838 16.0925 2.07201 16.4468 2.41667C16.801 2.76133 17 3.22879 17 3.71622V7.39189V15.6622C17 16.1496 16.801 16.617 16.4468 16.9617C16.0925 17.3064 15.6121 17.5 15.1111 17.5H1.88889C1.38793 17.5 0.907479 17.3064 0.553243 16.9617C0.199007 16.617 0 16.1496 0 15.6622V7.39189V3.71622C0 3.22879 0.199008 2.76133 0.553243 2.41667C0.907478 2.07201 1.38792 1.87838 1.88889 1.87838H3.77778V1.41892C3.77778 0.911414 4.20062 0.5 4.72222 0.5ZM1.88889 6.47297H15.1111V3.71622H13.2222V4.17568C13.2222 4.68318 12.7994 5.09459 12.2778 5.09459C11.7562 5.09459 11.3333 4.68318 11.3333 4.17568V3.71622H5.66667V4.17568C5.66667 4.68318 5.24382 5.09459 4.72222 5.09459C4.20062 5.09459 3.77778 4.68318 3.77778 4.17568V3.71622H1.88889L1.88889 6.47297ZM1.88889 8.31081V15.6622H15.1111V8.31081H1.88889Z" fill="#404040"/>
</svg>
