<svg width="24" height="17" viewBox="0 0 24 17" fill="none" xmlns="http://www.w3.org/2000/svg">
<g id="Group">
<path id="Vector" d="M11.9999 0.257025L11.4853 0V0.0017246L11.4836 0.00402498L11.4801 0.0114997L11.468 0.0362248C11.4079 0.164771 11.3523 0.295375 11.3013 0.4278C11.1744 0.755692 11.0751 1.09363 11.0046 1.43807C10.8528 2.19765 10.8028 3.32293 11.5934 4.11355C11.9528 4.47293 12.0028 5.07265 11.8671 5.75058C11.7868 6.14154 11.6613 6.52185 11.4933 6.8839L11.4864 6.89827L11.4853 6.9L11.9999 7.15702C12.514 7.41405 12.5145 7.41347 12.5145 7.41347V7.41232L12.5163 7.41003L12.5197 7.40255L12.5318 7.37783L12.572 7.29157C12.7609 6.87007 12.9028 6.42908 12.9952 5.97655C13.147 5.2164 13.1971 4.09113 12.4064 3.3005C12.0471 2.94112 11.997 2.3414 12.1327 1.66347C12.2131 1.27251 12.3385 0.892195 12.5065 0.53015L12.5134 0.515775L12.5145 0.514049L11.9999 0.257025Z" fill="#414141"/>
<path id="Vector_2" fill-rule="evenodd" clip-rule="evenodd" d="M0.5 10.8945C0.5 10.742 0.56058 10.5958 0.668414 10.4879C0.776247 10.3801 0.9225 10.3195 1.075 10.3195H22.925C23.0775 10.3195 23.2238 10.3801 23.3316 10.4879C23.4394 10.5958 23.5 10.742 23.5 10.8945C23.5 11.047 23.4394 11.1933 23.3316 11.3011C23.2238 11.4089 23.0775 11.4695 22.925 11.4695H21.2C21.2 12.6895 20.7154 13.8595 19.8527 14.7222C18.99 15.5849 17.82 16.0695 16.6 16.0695H7.4C6.18 16.0695 5.00998 15.5849 4.14731 14.7222C3.28464 13.8595 2.8 12.6895 2.8 11.4695H1.075C0.9225 11.4695 0.776247 11.4089 0.668414 11.3011C0.56058 11.1933 0.5 11.047 0.5 10.8945ZM3.95 11.4695H20.05C20.05 12.3845 19.6865 13.262 19.0395 13.909C18.3925 14.556 17.515 14.9195 16.6 14.9195H7.4C6.485 14.9195 5.60748 14.556 4.96048 13.909C4.31348 13.262 3.95 12.3845 3.95 11.4695Z" fill="#414141"/>
<path id="Vector_3" d="M6.92247 1.37305L7.39972 1.69505C7.8764 2.01647 7.87697 2.0159 7.87697 2.0159L7.8695 2.0274C7.81903 2.10787 7.77184 2.19036 7.72805 2.27465C7.61933 2.481 7.53261 2.6982 7.4693 2.92267C7.3313 3.43557 7.38075 3.84037 7.74185 4.10717C8.6745 4.79832 8.62505 5.8316 8.4399 6.51642C8.35527 6.82074 8.23866 7.11525 8.09202 7.39502C8.03202 7.51041 7.96718 7.62321 7.89767 7.73312L7.88617 7.75152L7.8833 7.75555L7.8787 7.76245L7.87755 7.76475L7.87697 7.76532C7.87697 7.76532 7.8764 7.76647 7.39972 7.44447C6.92305 7.12247 6.92247 7.12305 6.92247 7.12305L6.92995 7.11212L6.961 7.06267C6.99969 6.99782 7.03651 6.93185 7.0714 6.86487C7.16052 6.69352 7.26287 6.46352 7.33015 6.21627C7.46815 5.70337 7.4187 5.29915 7.0576 5.03177C6.12495 4.34062 6.1744 3.30792 6.35955 2.62252C6.45442 2.27062 6.59472 1.96127 6.70742 1.74392C6.7716 1.62089 6.84125 1.50079 6.91615 1.38397L6.92017 1.37707L6.9219 1.3742L6.92247 1.37305ZM17.1747 1.69447C16.698 1.37247 16.6975 1.37305 16.6975 1.37305V1.3742L16.6952 1.37707L16.6906 1.38397C16.6146 1.49999 16.5451 1.62016 16.4824 1.74392C16.3697 1.96127 16.2294 2.27062 16.1345 2.62252C15.9494 3.30735 15.8999 4.34062 16.8326 5.03177C17.1937 5.29915 17.2431 5.70337 17.1046 6.21627C17.0379 6.46352 16.9355 6.69352 16.8458 6.86487C16.8023 6.94919 16.7553 7.03167 16.7049 7.11212L16.698 7.12362L17.1747 7.44447C17.6514 7.76647 17.652 7.76532 17.652 7.76532V7.76475L17.6543 7.76245L17.6589 7.75555L17.6675 7.74117L17.6732 7.73312C17.7428 7.62321 17.8076 7.51041 17.8676 7.39502C18.0138 7.11511 18.1302 6.82063 18.2149 6.51642C18.4 5.8316 18.4495 4.79832 17.5168 4.10717C17.1557 3.8398 17.1063 3.43557 17.2449 2.92267C17.3116 2.67542 17.4139 2.44542 17.5036 2.27407C17.5472 2.18979 17.5942 2.10731 17.6445 2.02682L17.6514 2.0159L17.1747 1.69447Z" fill="#414141"/>
</g>
</svg>
