<svg width="43" height="50" viewBox="0 0 43 50" fill="none" xmlns="http://www.w3.org/2000/svg">
<path d="M21.4987 10C22.4761 10 23.4315 9.70676 24.2441 9.15735C25.0567 8.60794 25.6901 7.82705 26.0641 6.91342C26.4381 5.99979 26.5359 4.99446 26.3453 4.02455C26.1546 3.05465 25.684 2.16373 24.9929 1.46447C24.3018 0.765205 23.4213 0.289002 22.4628 0.0960758C21.5042 -0.0968503 20.5107 0.00216641 19.6077 0.380605C18.7048 0.759043 17.933 1.39991 17.3901 2.22215C16.8471 3.0444 16.5573 4.0111 16.5573 5C16.5573 6.32609 17.0779 7.59785 18.0046 8.53554C18.9313 9.47322 20.1882 10 21.4987 10ZM40.0293 45H37.5585V32.5C37.5585 31.837 37.2982 31.2011 36.8349 30.7322C36.3715 30.2634 35.7431 30 35.0878 30H22.7341V25H35.0878C35.7431 25 36.3715 24.7366 36.8349 24.2678C37.2982 23.7989 37.5585 23.163 37.5585 22.5C37.5585 21.837 37.2982 21.2011 36.8349 20.7322C36.3715 20.2634 35.7431 20 35.0878 20H22.7341V15C22.7341 14.337 22.4738 13.7011 22.0105 13.2322C21.5471 12.7634 20.9187 12.5 20.2634 12.5C19.6081 12.5 18.9797 12.7634 18.5163 13.2322C18.053 13.7011 17.7926 14.337 17.7926 15V32.5C17.7926 33.163 18.053 33.7989 18.5163 34.2678C18.9797 34.7366 19.6081 35 20.2634 35H32.6171V47.5C32.6171 48.163 32.8774 48.7989 33.3407 49.2678C33.8041 49.7366 34.4325 50 35.0878 50H40.0293C40.6845 50 41.313 49.7366 41.7763 49.2678C42.2397 48.7989 42.5 48.163 42.5 47.5C42.5 46.837 42.2397 46.2011 41.7763 45.7322C41.313 45.2634 40.6845 45 40.0293 45ZM23.2283 41C21.9837 42.6791 20.2486 43.9193 18.2687 44.5451C16.2888 45.1709 14.1645 45.1505 12.1966 44.4868C10.2288 43.8231 8.51729 42.5498 7.30445 40.8471C6.09161 39.1444 5.43897 37.0988 5.43897 35C5.44188 33.0568 6.00425 31.1566 7.05734 29.5316C8.11043 27.9066 9.60861 26.6273 11.3687 25.85C11.9716 25.5848 12.4456 25.0881 12.6866 24.4692C12.9275 23.8504 12.9156 23.16 12.6535 22.55C12.3914 21.94 11.9005 21.4603 11.2889 21.2165C10.6773 20.9728 9.995 20.9848 9.39214 21.25C7.31302 22.1686 5.47 23.5578 4.00503 25.3106C2.54006 27.0634 1.49222 29.1331 0.942225 31.3602C0.392227 33.5873 0.35474 35.9124 0.832651 38.1564C1.31056 40.4005 2.29112 42.5036 3.6988 44.3039C5.10649 46.1041 6.90374 47.5534 8.95215 48.5401C11.0006 49.5269 13.2455 50.0247 15.514 49.9954C17.7825 49.966 20.0141 49.4102 22.0369 48.3708C24.0597 47.3314 25.8197 45.8361 27.1814 44C27.5746 43.4696 27.7434 42.8028 27.6508 42.1464C27.5581 41.4901 27.2115 40.8978 26.6873 40.5C26.1631 40.1022 25.5041 39.9314 24.8554 40.0251C24.2067 40.1189 23.6214 40.4696 23.2283 41Z" fill="#253871"/>
</svg>
