<svg width="61" height="42" viewBox="0 0 61 42" fill="none" xmlns="http://www.w3.org/2000/svg">
<path d="M57.5 17.34V9C57.5 4.05 53.45 0 48.5 0H36.5C34.19 0 32.09 0.900001 30.5 2.34C28.91 0.900001 26.81 0 24.5 0H12.5C7.55 0 3.5 4.05 3.5 9V17.34C1.67 18.99 0.5 21.36 0.5 24V42H6.5V36H54.5V42H60.5V24C60.5 21.36 59.33 18.99 57.5 17.34ZM36.5 6H48.5C50.15 6 51.5 7.35 51.5 9V15H33.5V9C33.5 7.35 34.85 6 36.5 6ZM9.5 9C9.5 7.35 10.85 6 12.5 6H24.5C26.15 6 27.5 7.35 27.5 9V15H9.5V9ZM6.5 30V24C6.5 22.35 7.85 21 9.5 21H51.5C53.15 21 54.5 22.35 54.5 24V30H6.5Z" fill="#253871"/>
</svg>
