<svg width="47" height="46" viewBox="0 0 47 46" fill="none" xmlns="http://www.w3.org/2000/svg">
<path d="M5.706 29.1416C8.591 29.1416 10.925 26.7425 10.925 23.7736C10.925 20.8205 8.591 18.4205 5.706 18.4205C2.833 18.4205 0.5 20.8205 0.5 23.7736C0.5 26.7416 2.833 29.1416 5.706 29.1416ZM34.936 38.3575C34.9923 38.3165 35.0562 38.287 35.1239 38.2707C35.1916 38.2543 35.2619 38.2515 35.3308 38.2624C35.3996 38.2733 35.4656 38.2976 35.525 38.334C35.5844 38.3704 35.6361 38.4182 35.677 38.4745L36.642 39.8465C36.7209 39.9659 36.7528 40.1104 36.7313 40.2519C36.7099 40.3934 36.6367 40.5219 36.526 40.6125L29.446 45.8995C29.3315 45.9814 29.1893 46.0149 29.0503 45.9928C28.9113 45.9707 28.7865 45.8948 28.703 45.7815L27.741 44.4095C27.662 44.2905 27.6301 44.1464 27.6515 44.0052C27.673 43.8639 27.7462 43.7357 27.857 43.6455L34.936 38.3575ZM26.933 31.5406L24.125 26.4775L22.651 27.5845L25.459 32.6745L26.933 31.5406ZM20.382 19.7135L9.462 0.000549316L7.373 0.0145493L18.895 20.8345L20.382 19.7135ZM30.663 30.1436C31.28 29.6826 32.692 29.0005 33.5 29.0005H43.5C45.474 29.0005 46.5 30.9866 46.5 33.0046C46.5 35.0345 45.474 36.0005 43.5 36.0005H34.5L23.664 44.5025C19.856 47.3215 17.548 44.2245 17.548 44.2245L9.065 35.4955C7.642 33.7425 7.95 30.4065 9.656 28.9296L21.395 20.3326C22.561 19.3326 24.292 19.4895 25.28 20.6755C26.256 21.8755 26.102 23.6695 24.934 24.6715L17.419 30.3285L22.818 35.8125L30.663 30.1436Z" fill="#253871"/>
</svg>
