<svg width="51" height="51" viewBox="0 0 51 51" fill="none" xmlns="http://www.w3.org/2000/svg">
<path d="M19.2525 24.225C17.7308 24.225 16.2715 23.6205 15.1955 22.5445C14.1195 21.4685 13.515 20.0092 13.515 18.4875C13.515 16.9658 14.1195 15.5065 15.1955 14.4305C16.2715 13.3545 17.7308 12.75 19.2525 12.75C20.7742 12.75 22.2335 13.3545 23.3095 14.4305C24.3855 15.5065 24.99 16.9658 24.99 18.4875C24.99 20.0092 24.3855 21.4685 23.3095 22.5445C22.2335 23.6205 20.7742 24.225 19.2525 24.225ZM20.4 45.2574V36.72C20.4 35.4756 20.7672 34.3307 21.4302 33.3081C19.1573 32.9849 16.842 33.1393 14.6321 33.7615C12.4223 34.3836 10.3665 35.4599 8.59605 36.9214C11.3834 41.0462 15.5808 44.0114 20.4 45.2599V45.2574ZM6.25515 32.283C9.9794 29.5269 14.4919 28.0427 19.125 28.05C21.7077 28.0467 24.2702 28.5062 26.6908 29.4066C28.9298 28.5345 31.5996 28.05 34.425 28.05C38.658 28.05 42.5467 29.1312 45.1503 30.9978C46.011 27.912 46.1329 24.6668 45.506 21.5251C44.8792 18.3834 43.5212 15.4335 41.5421 12.9143C39.563 10.3951 37.0184 8.37744 34.1144 7.0247C31.2103 5.67196 28.0286 5.02217 24.8267 5.12797C21.6248 5.23377 18.4929 6.09218 15.6845 7.63367C12.8761 9.17517 10.4702 11.3564 8.66174 14.0008C6.85325 16.6451 5.69297 19.6782 5.27487 22.8544C4.85676 26.0307 5.19259 29.2607 6.25515 32.283ZM43.0414 35.9193C42.0393 34.5602 38.6861 33.15 34.425 33.15C29.3097 33.15 25.5 35.1824 25.5 36.72V45.9C29.039 45.902 32.5176 44.9828 35.5936 43.2328C38.6697 41.4829 41.2348 38.9624 43.0414 35.9193ZM25.5 51C11.4164 51 0 39.5836 0 25.5C0 11.4164 11.4164 0 25.5 0C39.5836 0 51 11.4164 51 25.5C51 39.5836 39.5836 51 25.5 51ZM34.425 26.775C33.0724 26.775 31.7752 26.2377 30.8188 25.2812C29.8623 24.3248 29.325 23.0276 29.325 21.675C29.325 20.3224 29.8623 19.0252 30.8188 18.0688C31.7752 17.1123 33.0724 16.575 34.425 16.575C35.7776 16.575 37.0748 17.1123 38.0312 18.0688C38.9877 19.0252 39.525 20.3224 39.525 21.675C39.525 23.0276 38.9877 24.3248 38.0312 25.2812C37.0748 26.2377 35.7776 26.775 34.425 26.775Z" fill="#253871"/>
</svg>
